<svg version="1.1" xmlns="http://www.w3.org/2000/svg" xmlns:xlink="http://www.w3.org/1999/xlink" width="704.04443359375" height="404"><defs/><g><text fill="#eeeeee" stroke="none" font-family="Arial" font-size="24px" font-style="normal" font-weight="normal" text-decoration="none" x="0" y="0">UNREGISTERED</text><text fill="#eeeeee" stroke="none" font-family="Arial" font-size="24px" font-style="normal" font-weight="normal" text-decoration="none" x="0" y="30">UNREGISTERED</text><text fill="#eeeeee" stroke="none" font-family="Arial" font-size="24px" font-style="normal" font-weight="normal" text-decoration="none" x="0" y="60">UNREGISTERED</text><text fill="#eeeeee" stroke="none" font-family="Arial" font-size="24px" font-style="normal" font-weight="normal" text-decoration="none" x="0" y="90">UNREGISTERED</text><text fill="#eeeeee" stroke="none" font-family="Arial" font-size="24px" font-style="normal" font-weight="normal" text-decoration="none" x="0" y="120">UNREGISTERED</text><text fill="#eeeeee" stroke="none" font-family="Arial" font-size="24px" font-style="normal" font-weight="normal" text-decoration="none" x="0" y="150">UNREGISTERED</text><text fill="#eeeeee" stroke="none" font-family="Arial" font-size="24px" font-style="normal" font-weight="normal" text-decoration="none" x="0" y="180">UNREGISTERED</text><text fill="#eeeeee" stroke="none" font-family="Arial" font-size="24px" font-style="normal" font-weight="normal" text-decoration="none" x="0" y="210">UNREGISTERED</text><text fill="#eeeeee" stroke="none" font-family="Arial" font-size="24px" font-style="normal" font-weight="normal" text-decoration="none" x="0" y="240">UNREGISTERED</text><text fill="#eeeeee" stroke="none" font-family="Arial" font-size="24px" font-style="normal" font-weight="normal" text-decoration="none" x="0" y="270">UNREGISTERED</text><text fill="#eeeeee" stroke="none" font-family="Arial" font-size="24px" font-style="normal" font-weight="normal" text-decoration="none" x="0" y="300">UNREGISTERED</text><text fill="#eeeeee" stroke="none" font-family="Arial" font-size="24px" font-style="normal" font-weight="normal" text-decoration="none" x="0" y="330">UNREGISTERED</text><text fill="#eeeeee" stroke="none" font-family="Arial" font-size="24px" font-style="normal" font-weight="normal" text-decoration="none" x="0" y="360">UNREGISTERED</text><text fill="#eeeeee" stroke="none" font-family="Arial" font-size="24px" font-style="normal" font-weight="normal" text-decoration="none" x="0" y="390">UNREGISTERED</text><text fill="#eeeeee" stroke="none" font-family="Arial" font-size="24px" font-style="normal" font-weight="normal" text-decoration="none" x="200" y="0">UNREGISTERED</text><text fill="#eeeeee" stroke="none" font-family="Arial" font-size="24px" font-style="normal" font-weight="normal" text-decoration="none" x="200" y="30">UNREGISTERED</text><text fill="#eeeeee" stroke="none" font-family="Arial" font-size="24px" font-style="normal" font-weight="normal" text-decoration="none" x="200" y="60">UNREGISTERED</text><text fill="#eeeeee" stroke="none" font-family="Arial" font-size="24px" font-style="normal" font-weight="normal" text-decoration="none" x="200" y="90">UNREGISTERED</text><text fill="#eeeeee" stroke="none" font-family="Arial" font-size="24px" font-style="normal" font-weight="normal" text-decoration="none" x="200" y="120">UNREGISTERED</text><text fill="#eeeeee" stroke="none" font-family="Arial" font-size="24px" font-style="normal" font-weight="normal" text-decoration="none" x="200" y="150">UNREGISTERED</text><text fill="#eeeeee" stroke="none" font-family="Arial" font-size="24px" font-style="normal" font-weight="normal" text-decoration="none" x="200" y="180">UNREGISTERED</text><text fill="#eeeeee" stroke="none" font-family="Arial" font-size="24px" font-style="normal" font-weight="normal" text-decoration="none" x="200" y="210">UNREGISTERED</text><text fill="#eeeeee" stroke="none" font-family="Arial" font-size="24px" font-style="normal" font-weight="normal" text-decoration="none" x="200" y="240">UNREGISTERED</text><text fill="#eeeeee" stroke="none" font-family="Arial" font-size="24px" font-style="normal" font-weight="normal" text-decoration="none" x="200" y="270">UNREGISTERED</text><text fill="#eeeeee" stroke="none" font-family="Arial" font-size="24px" font-style="normal" font-weight="normal" text-decoration="none" x="200" y="300">UNREGISTERED</text><text fill="#eeeeee" stroke="none" font-family="Arial" font-size="24px" font-style="normal" font-weight="normal" text-decoration="none" x="200" y="330">UNREGISTERED</text><text fill="#eeeeee" stroke="none" font-family="Arial" font-size="24px" font-style="normal" font-weight="normal" text-decoration="none" x="200" y="360">UNREGISTERED</text><text fill="#eeeeee" stroke="none" font-family="Arial" font-size="24px" font-style="normal" font-weight="normal" text-decoration="none" x="200" y="390">UNREGISTERED</text><text fill="#eeeeee" stroke="none" font-family="Arial" font-size="24px" font-style="normal" font-weight="normal" text-decoration="none" x="400" y="0">UNREGISTERED</text><text fill="#eeeeee" stroke="none" font-family="Arial" font-size="24px" font-style="normal" font-weight="normal" text-decoration="none" x="400" y="30">UNREGISTERED</text><text fill="#eeeeee" stroke="none" font-family="Arial" font-size="24px" font-style="normal" font-weight="normal" text-decoration="none" x="400" y="60">UNREGISTERED</text><text fill="#eeeeee" stroke="none" font-family="Arial" font-size="24px" font-style="normal" font-weight="normal" text-decoration="none" x="400" y="90">UNREGISTERED</text><text fill="#eeeeee" stroke="none" font-family="Arial" font-size="24px" font-style="normal" font-weight="normal" text-decoration="none" x="400" y="120">UNREGISTERED</text><text fill="#eeeeee" stroke="none" font-family="Arial" font-size="24px" font-style="normal" font-weight="normal" text-decoration="none" x="400" y="150">UNREGISTERED</text><text fill="#eeeeee" stroke="none" font-family="Arial" font-size="24px" font-style="normal" font-weight="normal" text-decoration="none" x="400" y="180">UNREGISTERED</text><text fill="#eeeeee" stroke="none" font-family="Arial" font-size="24px" font-style="normal" font-weight="normal" text-decoration="none" x="400" y="210">UNREGISTERED</text><text fill="#eeeeee" stroke="none" font-family="Arial" font-size="24px" font-style="normal" font-weight="normal" text-decoration="none" x="400" y="240">UNREGISTERED</text><text fill="#eeeeee" stroke="none" font-family="Arial" font-size="24px" font-style="normal" font-weight="normal" text-decoration="none" x="400" y="270">UNREGISTERED</text><text fill="#eeeeee" stroke="none" font-family="Arial" font-size="24px" font-style="normal" font-weight="normal" text-decoration="none" x="400" y="300">UNREGISTERED</text><text fill="#eeeeee" stroke="none" font-family="Arial" font-size="24px" font-style="normal" font-weight="normal" text-decoration="none" x="400" y="330">UNREGISTERED</text><text fill="#eeeeee" stroke="none" font-family="Arial" font-size="24px" font-style="normal" font-weight="normal" text-decoration="none" x="400" y="360">UNREGISTERED</text><text fill="#eeeeee" stroke="none" font-family="Arial" font-size="24px" font-style="normal" font-weight="normal" text-decoration="none" x="400" y="390">UNREGISTERED</text><text fill="#eeeeee" stroke="none" font-family="Arial" font-size="24px" font-style="normal" font-weight="normal" text-decoration="none" x="600" y="0">UNREGISTERED</text><text fill="#eeeeee" stroke="none" font-family="Arial" font-size="24px" font-style="normal" font-weight="normal" text-decoration="none" x="600" y="30">UNREGISTERED</text><text fill="#eeeeee" stroke="none" font-family="Arial" font-size="24px" font-style="normal" font-weight="normal" text-decoration="none" x="600" y="60">UNREGISTERED</text><text fill="#eeeeee" stroke="none" font-family="Arial" font-size="24px" font-style="normal" font-weight="normal" text-decoration="none" x="600" y="90">UNREGISTERED</text><text fill="#eeeeee" stroke="none" font-family="Arial" font-size="24px" font-style="normal" font-weight="normal" text-decoration="none" x="600" y="120">UNREGISTERED</text><text fill="#eeeeee" stroke="none" font-family="Arial" font-size="24px" font-style="normal" font-weight="normal" text-decoration="none" x="600" y="150">UNREGISTERED</text><text fill="#eeeeee" stroke="none" font-family="Arial" font-size="24px" font-style="normal" font-weight="normal" text-decoration="none" x="600" y="180">UNREGISTERED</text><text fill="#eeeeee" stroke="none" font-family="Arial" font-size="24px" font-style="normal" font-weight="normal" text-decoration="none" x="600" y="210">UNREGISTERED</text><text fill="#eeeeee" stroke="none" font-family="Arial" font-size="24px" font-style="normal" font-weight="normal" text-decoration="none" x="600" y="240">UNREGISTERED</text><text fill="#eeeeee" stroke="none" font-family="Arial" font-size="24px" font-style="normal" font-weight="normal" text-decoration="none" x="600" y="270">UNREGISTERED</text><text fill="#eeeeee" stroke="none" font-family="Arial" font-size="24px" font-style="normal" font-weight="normal" text-decoration="none" x="600" y="300">UNREGISTERED</text><text fill="#eeeeee" stroke="none" font-family="Arial" font-size="24px" font-style="normal" font-weight="normal" text-decoration="none" x="600" y="330">UNREGISTERED</text><text fill="#eeeeee" stroke="none" font-family="Arial" font-size="24px" font-style="normal" font-weight="normal" text-decoration="none" x="600" y="360">UNREGISTERED</text><text fill="#eeeeee" stroke="none" font-family="Arial" font-size="24px" font-style="normal" font-weight="normal" text-decoration="none" x="600" y="390">UNREGISTERED</text><g transform="translate(-62,-6) scale(1,1)"><path fill="#C0C0C0" stroke="none" d="M 174.558349609375 312.5 C 174.558349609375 307.2532944 178.811644009375 303 184.058349609375 303 C 189.305055209375 303 193.558349609375 307.2532944 193.558349609375 312.5 C 193.558349609375 317.7467056 189.305055209375 322 184.058349609375 322 C 178.811644009375 322 174.558349609375 317.7467056 174.558349609375 312.5 Z" opacity="0.2"/></g><g transform="translate(-62,-6) scale(1,1)"><path fill="#000000" stroke="none" d="M 167.558349609375 305.5 C 167.558349609375 300.2532944 171.811644009375 296 177.058349609375 296 C 182.305055209375 296 186.558349609375 300.2532944 186.558349609375 305.5 C 186.558349609375 310.7467056 182.305055209375 315 177.058349609375 315 C 171.811644009375 315 167.558349609375 310.7467056 167.558349609375 305.5 Z"/></g><g transform="translate(-62,-6) scale(1,1)"><path fill="#C0C0C0" stroke="none" d="M 439.599609375 388 L 502.599609375 388 Q 505.599609375 388 505.599609375 391 L 505.599609375 390 Q 505.599609375 393 502.599609375 393 L 439.599609375 393 Q 436.599609375 393 436.599609375 390 L 436.599609375 391 Q 436.599609375 388 439.599609375 388 Z" opacity="0.2"/></g><g transform="translate(-62,-6) scale(1,1)"><path fill="#000000" stroke="none" d="M 432.599609375 381 L 495.599609375 381 Q 498.599609375 381 498.599609375 384 L 498.599609375 384 Q 498.599609375 387 495.599609375 387 L 432.599609375 387 Q 429.599609375 387 429.599609375 384 L 429.599609375 384 Q 429.599609375 381 432.599609375 381 Z"/></g><g transform="translate(-62,-6) scale(1,1)"><path fill="#C0C0C0" stroke="none" d="M 115.154296875 367 L 252.96240234375 367 Q 262.96240234375 367 262.96240234375 377 L 262.96240234375 397 Q 262.96240234375 407 252.96240234375 407 L 115.154296875 407 Q 105.154296875 407 105.154296875 397 L 105.154296875 377 Q 105.154296875 367 115.154296875 367 Z" opacity="0.2"/></g><g transform="translate(-62,-6) scale(1,1)"><path fill="#ffffff" stroke="none" d="M 108.154296875 360 L 245.96240234375 360 Q 255.96240234375 360 255.96240234375 370 L 255.96240234375 390 Q 255.96240234375 400 245.96240234375 400 L 108.154296875 400 Q 98.154296875 400 98.154296875 390 L 98.154296875 370 Q 98.154296875 360 108.154296875 360 Z"/></g><g transform="translate(-62,-6) scale(1,1)"><path fill="none" stroke="#000000" d="M 108.154296875 360 L 245.96240234375 360 Q 255.96240234375 360 255.96240234375 370 L 255.96240234375 390 Q 255.96240234375 400 245.96240234375 400 L 108.154296875 400 Q 98.154296875 400 98.154296875 390 L 98.154296875 370 Q 98.154296875 360 108.154296875 360 Z" stroke-miterlimit="10"/></g><g transform="translate(-62,-6) scale(1,1)"><g><path fill="none" stroke="none"/><text fill="#000000" stroke="none" font-family="Arial" font-size="13px" font-style="normal" font-weight="bold" text-decoration="none" x="108.414794921875" y="379.5">Rentrer dans simulation</text></g></g><g transform="translate(-62,-6) scale(1,1)"><path fill="#C0C0C0" stroke="none" d="M 619.4437255859375 36.5 L 630.9437255859375 27 L 641.4437255859375 36.5 L 630.9437255859375 45 L 619.4437255859375 36.5" opacity="0.2"/></g><g transform="translate(-62,-6) scale(1,1)"><path fill="#ffffff" stroke="none" d="M 612.4437255859375 29 L 623.4437255859375 20 L 634.4437255859375 29 L 623.4437255859375 38 L 612.4437255859375 29"/></g><g transform="translate(-62,-6) scale(1,1)"><path fill="none" stroke="#000000" d="M 612.4437255859375 29 L 623.4437255859375 20 L 634.4437255859375 29 L 623.4437255859375 38 L 612.4437255859375 29 L 612.4437255859375 29" stroke-miterlimit="10"/></g><g transform="translate(-62,-6) scale(1,1)"><path fill="#C0C0C0" stroke="none" d="M 591 88.5 L 602.5 79 L 613 88.5 L 602.5 97 L 591 88.5" opacity="0.2"/></g><g transform="translate(-62,-6) scale(1,1)"><path fill="#ffffff" stroke="none" d="M 584 81 L 595 72 L 606 81 L 595 90 L 584 81"/></g><g transform="translate(-62,-6) scale(1,1)"><path fill="none" stroke="#000000" d="M 584 81 L 595 72 L 606 81 L 595 90 L 584 81 L 584 81" stroke-miterlimit="10"/></g><g transform="translate(-62,-6) scale(1,1)"><path fill="#C0C0C0" stroke="none" d="M 247 64.5 L 258.5 55 L 269 64.5 L 258.5 73 L 247 64.5" opacity="0.2"/></g><g transform="translate(-62,-6) scale(1,1)"><path fill="#ffffff" stroke="none" d="M 240 57 L 251 48 L 262 57 L 251 66 L 240 57"/></g><g transform="translate(-62,-6) scale(1,1)"><path fill="none" stroke="#000000" d="M 240 57 L 251 48 L 262 57 L 251 66 L 240 57 L 240 57" stroke-miterlimit="10"/></g><g transform="translate(-62,-6) scale(1,1)"><path fill="#C0C0C0" stroke="none" d="M 89 127 L 201 127 Q 211 127 211 137 L 211 170 Q 211 180 201 180 L 89 180 Q 79 180 79 170 L 79 137 Q 79 127 89 127 Z" opacity="0.2"/></g><g transform="translate(-62,-6) scale(1,1)"><path fill="#ffffff" stroke="none" d="M 82 120 L 194 120 Q 204 120 204 130 L 204 163 Q 204 173 194 173 L 82 173 Q 72 173 72 163 L 72 130 Q 72 120 82 120 Z"/></g><g transform="translate(-62,-6) scale(1,1)"><path fill="none" stroke="#000000" d="M 82 120 L 194 120 Q 204 120 204 130 L 204 163 Q 204 173 194 173 L 82 173 Q 72 173 72 163 L 72 130 Q 72 120 82 120 Z" stroke-miterlimit="10"/></g><g transform="translate(-62,-6) scale(1,1)"><g><path fill="none" stroke="none"/><text fill="#000000" stroke="none" font-family="Arial" font-size="13px" font-style="normal" font-weight="bold" text-decoration="none" x="89.224609375" y="139.5">Tourner et définir</text><text fill="#000000" stroke="none" font-family="Arial" font-size="13px" font-style="normal" font-weight="bold" text-decoration="none" x="83.79736328125" y="152.5">prochaine décision</text></g></g><g transform="translate(-62,-6) scale(1,1)"><path fill="#C0C0C0" stroke="none" d="M 202 215 L 265 215 Q 268 215 268 218 L 268 217 Q 268 220 265 220 L 202 220 Q 199 220 199 217 L 199 218 Q 199 215 202 215 Z" opacity="0.2"/></g><g transform="translate(-62,-6) scale(1,1)"><path fill="#000000" stroke="none" d="M 195 208 L 258 208 Q 261 208 261 211 L 261 211 Q 261 214 258 214 L 195 214 Q 192 214 192 211 L 192 211 Q 192 208 195 208 Z"/></g><g transform="translate(-62,-6) scale(1,1)"><path fill="#C0C0C0" stroke="none" d="M 316.73779296875 277 L 328.23779296875 267.5 L 338.73779296875 277 L 328.23779296875 285.5 L 316.73779296875 277" opacity="0.2"/></g><g transform="translate(-62,-6) scale(1,1)"><path fill="#ffffff" stroke="none" d="M 309.73779296875 269.5 L 320.73779296875 260.5 L 331.73779296875 269.5 L 320.73779296875 278.5 L 309.73779296875 269.5"/></g><g transform="translate(-62,-6) scale(1,1)"><path fill="none" stroke="#000000" d="M 309.73779296875 269.5 L 320.73779296875 260.5 L 331.73779296875 269.5 L 320.73779296875 278.5 L 309.73779296875 269.5 L 309.73779296875 269.5" stroke-miterlimit="10"/></g><g transform="translate(-62,-6) scale(1,1)"><path fill="#C0C0C0" stroke="none" d="M 321 159 L 363.447265625 159 Q 373.447265625 159 373.447265625 169 L 373.447265625 189 Q 373.447265625 199 363.447265625 199 L 321 199 Q 311 199 311 189 L 311 169 Q 311 159 321 159 Z" opacity="0.2"/></g><g transform="translate(-62,-6) scale(1,1)"><path fill="#ffffff" stroke="none" d="M 314 152 L 356.447265625 152 Q 366.447265625 152 366.447265625 162 L 366.447265625 182 Q 366.447265625 192 356.447265625 192 L 314 192 Q 304 192 304 182 L 304 162 Q 304 152 314 152 Z"/></g><g transform="translate(-62,-6) scale(1,1)"><path fill="none" stroke="#000000" d="M 314 152 L 356.447265625 152 Q 366.447265625 152 366.447265625 162 L 366.447265625 182 Q 366.447265625 192 356.447265625 192 L 314 192 Q 304 192 304 182 L 304 162 Q 304 152 314 152 Z" stroke-miterlimit="10"/></g><g transform="translate(-62,-6) scale(1,1)"><g><path fill="none" stroke="none"/><text fill="#000000" stroke="none" font-family="Arial" font-size="13px" font-style="normal" font-weight="bold" text-decoration="none" x="310.65185546875" y="171.5">Attendre</text></g></g><g transform="translate(-62,-6) scale(1,1)"><path fill="#C0C0C0" stroke="none" d="M 303.96240234375 317 L 351.51318359375 317 Q 361.51318359375 317 361.51318359375 327 L 361.51318359375 347 Q 361.51318359375 357 351.51318359375 357 L 303.96240234375 357 Q 293.96240234375 357 293.96240234375 347 L 293.96240234375 327 Q 293.96240234375 317 303.96240234375 317 Z" opacity="0.2"/></g><g transform="translate(-62,-6) scale(1,1)"><path fill="#ffffff" stroke="none" d="M 296.96240234375 310 L 344.51318359375 310 Q 354.51318359375 310 354.51318359375 320 L 354.51318359375 340 Q 354.51318359375 350 344.51318359375 350 L 296.96240234375 350 Q 286.96240234375 350 286.96240234375 340 L 286.96240234375 320 Q 286.96240234375 310 296.96240234375 310 Z"/></g><g transform="translate(-62,-6) scale(1,1)"><path fill="none" stroke="#000000" d="M 296.96240234375 310 L 344.51318359375 310 Q 354.51318359375 310 354.51318359375 320 L 354.51318359375 340 Q 354.51318359375 350 344.51318359375 350 L 296.96240234375 350 Q 286.96240234375 350 286.96240234375 340 L 286.96240234375 320 Q 286.96240234375 310 296.96240234375 310 Z" stroke-miterlimit="10"/></g><g transform="translate(-62,-6) scale(1,1)"><g><path fill="none" stroke="none"/><text fill="#000000" stroke="none" font-family="Arial" font-size="13px" font-style="normal" font-weight="bold" text-decoration="none" x="293.169921875" y="329.5">Traverser</text></g></g><g transform="translate(-62,-6) scale(1,1)"><path fill="#C0C0C0" stroke="none" d="M 394 213.5 L 457 213.5 Q 460 213.5 460 216.5 L 460 215.5 Q 460 218.5 457 218.5 L 394 218.5 Q 391 218.5 391 215.5 L 391 216.5 Q 391 213.5 394 213.5 Z" opacity="0.2"/></g><g transform="translate(-62,-6) scale(1,1)"><path fill="#000000" stroke="none" d="M 387 206.5 L 450 206.5 Q 453 206.5 453 209.5 L 453 209.5 Q 453 212.5 450 212.5 L 387 212.5 Q 384 212.5 384 209.5 L 384 209.5 Q 384 206.5 387 206.5 Z"/></g><g transform="translate(-62,-6) scale(1,1)"><path fill="#C0C0C0" stroke="none" d="M 617 159 L 656.82568359375 159 Q 666.82568359375 159 666.82568359375 169 L 666.82568359375 189 Q 666.82568359375 199 656.82568359375 199 L 617 199 Q 607 199 607 189 L 607 169 Q 607 159 617 159 Z" opacity="0.2"/></g><g transform="translate(-62,-6) scale(1,1)"><path fill="#ffffff" stroke="none" d="M 610 152 L 649.82568359375 152 Q 659.82568359375 152 659.82568359375 162 L 659.82568359375 182 Q 659.82568359375 192 649.82568359375 192 L 610 192 Q 600 192 600 182 L 600 162 Q 600 152 610 152 Z"/></g><g transform="translate(-62,-6) scale(1,1)"><path fill="none" stroke="#000000" d="M 610 152 L 649.82568359375 152 Q 659.82568359375 152 659.82568359375 162 L 659.82568359375 182 Q 659.82568359375 192 649.82568359375 192 L 610 192 Q 600 192 600 182 L 600 162 Q 600 152 610 152 Z" stroke-miterlimit="10"/></g><g transform="translate(-62,-6) scale(1,1)"><g><path fill="none" stroke="none"/><text fill="#000000" stroke="none" font-family="Arial" font-size="13px" font-style="normal" font-weight="bold" text-decoration="none" x="606.185302734375" y="171.5">Avancer</text></g></g><g transform="translate(-62,-6) scale(1,1)"><path fill="#C0C0C0" stroke="none" d="M 575 264.5 L 586.5 255 L 597 264.5 L 586.5 273 L 575 264.5" opacity="0.2"/></g><g transform="translate(-62,-6) scale(1,1)"><path fill="#ffffff" stroke="none" d="M 568 257 L 579 248 L 590 257 L 579 266 L 568 257"/></g><g transform="translate(-62,-6) scale(1,1)"><path fill="none" stroke="#000000" d="M 568 257 L 579 248 L 590 257 L 579 266 L 568 257 L 568 257" stroke-miterlimit="10"/></g><g transform="translate(-62,-6) scale(1,1)"><path fill="#C0C0C0" stroke="none" d="M 623 323.5 C 623 316.59644 628.59644 311 635.5 311 C 642.40356 311 648 316.59644 648 323.5 C 648 330.40356 642.40356 336 635.5 336 C 628.59644 336 623 330.40356 623 323.5 Z" opacity="0.2"/></g><g transform="translate(-62,-6) scale(1,1)"><path fill="none" stroke="#000000" d="M 616 316.5 C 616 309.59644 621.59644 304 628.5 304 C 635.40356 304 641 309.59644 641 316.5 C 641 323.40356 635.40356 329 628.5 329 C 621.59644 329 616 323.40356 616 316.5 Z" stroke-miterlimit="10"/></g><g transform="translate(-62,-6) scale(1,1)"><path fill="#000000" stroke="none" d="M 621 316.5 C 621 312.357864 624.357864 309 628.5 309 C 632.642136 309 636 312.357864 636 316.5 C 636 320.642136 632.642136 324 628.5 324 C 624.357864 324 621 320.642136 621 316.5 Z"/></g><g transform="translate(-62,-6) scale(1,1)"><path fill="#C0C0C0" stroke="none" d="M 468.9619140625 277 L 480.4619140625 267.5 L 490.9619140625 277 L 480.4619140625 285.5 L 468.9619140625 277" opacity="0.2"/></g><g transform="translate(-62,-6) scale(1,1)"><path fill="#ffffff" stroke="none" d="M 461.9619140625 269.5 L 472.9619140625 260.5 L 483.9619140625 269.5 L 472.9619140625 278.5 L 461.9619140625 269.5"/></g><g transform="translate(-62,-6) scale(1,1)"><path fill="none" stroke="#000000" d="M 461.9619140625 269.5 L 472.9619140625 260.5 L 483.9619140625 269.5 L 472.9619140625 278.5 L 461.9619140625 269.5 L 461.9619140625 269.5" stroke-miterlimit="10"/></g><g transform="translate(-62,-6) scale(1,1)"><path fill="#C0C0C0" stroke="none" d="M 497 159 L 539.447265625 159 Q 549.447265625 159 549.447265625 169 L 549.447265625 189 Q 549.447265625 199 539.447265625 199 L 497 199 Q 487 199 487 189 L 487 169 Q 487 159 497 159 Z" opacity="0.2"/></g><g transform="translate(-62,-6) scale(1,1)"><path fill="#ffffff" stroke="none" d="M 490 152 L 532.447265625 152 Q 542.447265625 152 542.447265625 162 L 542.447265625 182 Q 542.447265625 192 532.447265625 192 L 490 192 Q 480 192 480 182 L 480 162 Q 480 152 490 152 Z"/></g><g transform="translate(-62,-6) scale(1,1)"><path fill="none" stroke="#000000" d="M 490 152 L 532.447265625 152 Q 542.447265625 152 542.447265625 162 L 542.447265625 182 Q 542.447265625 192 532.447265625 192 L 490 192 Q 480 192 480 182 L 480 162 Q 480 152 490 152 Z" stroke-miterlimit="10"/></g><g transform="translate(-62,-6) scale(1,1)"><g><path fill="none" stroke="none"/><text fill="#000000" stroke="none" font-family="Arial" font-size="13px" font-style="normal" font-weight="bold" text-decoration="none" x="486.65185546875" y="171.5">Attendre</text></g></g><g transform="translate(-62,-6) scale(1,1)"><path fill="#C0C0C0" stroke="none" d="M 409 319 L 456.55078125 319 Q 466.55078125 319 466.55078125 329 L 466.55078125 349 Q 466.55078125 359 456.55078125 359 L 409 359 Q 399 359 399 349 L 399 329 Q 399 319 409 319 Z" opacity="0.2"/></g><g transform="translate(-62,-6) scale(1,1)"><path fill="#ffffff" stroke="none" d="M 402 312 L 449.55078125 312 Q 459.55078125 312 459.55078125 322 L 459.55078125 342 Q 459.55078125 352 449.55078125 352 L 402 352 Q 392 352 392 342 L 392 322 Q 392 312 402 312 Z"/></g><g transform="translate(-62,-6) scale(1,1)"><path fill="none" stroke="#000000" d="M 402 312 L 449.55078125 312 Q 459.55078125 312 459.55078125 322 L 459.55078125 342 Q 459.55078125 352 449.55078125 352 L 402 352 Q 392 352 392 342 L 392 322 Q 392 312 402 312 Z" stroke-miterlimit="10"/></g><g transform="translate(-62,-6) scale(1,1)"><g><path fill="none" stroke="none"/><text fill="#000000" stroke="none" font-family="Arial" font-size="13px" font-style="normal" font-weight="bold" text-decoration="none" x="398.20751953125" y="331.5">Traverser</text></g></g><g transform="translate(-62,-6) scale(1,1)"><path fill="none" stroke="#000000" d="M 177 316 L 177 359" stroke-miterlimit="10"/></g><g transform="translate(-62,-6) scale(1,1)"><path fill="none" stroke="#000000" d="M 172.790482243984 348.83732514237585 L 177 359 L 181.209517756016 348.83732514237585" stroke-miterlimit="10"/></g><g transform="translate(-62,-6) scale(1,1)"><path fill="none" stroke="#000000" d="M 257 381 L 429 383" stroke-miterlimit="10"/></g><g transform="translate(-62,-6) scale(1,1)"><path fill="none" stroke="#000000" d="M 418.7890675391646 387.0910705542996 L 429 383 L 418.8869566834476 378.6726041459633" stroke-miterlimit="10"/></g><g transform="translate(-62,-6) scale(1,1)"><path fill="none" stroke="#000000" d="M 500 383 Q 712 384 712 208 Q 712 32 635 29" stroke-miterlimit="10"/></g><g transform="translate(-62,-6) scale(1,1)"><path fill="none" stroke="#000000" d="M 645.3188531963796 25.18932175176566 L 635 29 L 644.991087499475 33.60197463898193" stroke-miterlimit="10"/></g><g transform="translate(-62,-6) scale(1,1)"><g><path fill="none" stroke="none"/><text fill="#000000" stroke="none" font-family="Arial" font-size="13px" font-style="normal" font-weight="normal" text-decoration="none" x="678.5" y="41.5">Intersection ?</text></g></g><g transform="translate(-62,-6) scale(1,1)"><path fill="none" stroke="#000000" d="M 611 28 Q 328 16 263 51" stroke-miterlimit="10"/></g><g transform="translate(-62,-6) scale(1,1)"><path fill="none" stroke="#000000" d="M 269.95220988685384 42.47551891965664 L 263 51 L 273.94367313323374 49.88823637721929" stroke-miterlimit="10"/></g><g transform="translate(-62,-6) scale(1,1)"><g><path fill="none" stroke="none"/><text fill="#000000" stroke="none" font-family="Arial" font-size="13px" font-style="normal" font-weight="normal" text-decoration="none" x="198.94091796875" y="35.5">oui - Tourner ?</text></g></g><g transform="translate(-62,-6) scale(1,1)"><path fill="none" stroke="#000000" d="M 239 64 Q 184 96 163 119" stroke-miterlimit="10"/></g><g transform="translate(-62,-6) scale(1,1)"><path fill="none" stroke="#000000" d="M 166.74371251375513 108.65666317795107 L 163 119 L 172.9610481122565 114.33336089832189" stroke-miterlimit="10"/></g><g transform="translate(-62,-6) scale(1,1)"><g><path fill="none" stroke="none"/><text fill="#000000" stroke="none" font-family="Arial" font-size="13px" font-style="normal" font-weight="normal" text-decoration="none" x="191.94091796875" y="68.5">oui</text></g></g><g transform="translate(-62,-6) scale(1,1)"><path fill="none" stroke="#000000" d="M 249 67 L 226 207" stroke-miterlimit="10"/></g><g transform="translate(-62,-6) scale(1,1)"><path fill="none" stroke="#000000" d="M 223.4936621272076 196.28933846733048 L 226 207 L 231.80133289494836 197.65417009345933" stroke-miterlimit="10"/></g><g transform="translate(-62,-6) scale(1,1)"><g><path fill="none" stroke="none"/><text fill="#000000" stroke="none" font-family="Arial" font-size="13px" font-style="normal" font-weight="normal" text-decoration="none" x="256.5791015625" y="92.5">non</text></g></g><g transform="translate(-62,-6) scale(1,1)"><path fill="none" stroke="#000000" d="M 177 174 L 222 207" stroke-miterlimit="10"/></g><g transform="translate(-62,-6) scale(1,1)"><path fill="none" stroke="#000000" d="M 211.315412381252 204.3847395125347 L 222 207 L 216.2941240658574 197.59558721534555" stroke-miterlimit="10"/></g><g transform="translate(-62,-6) scale(1,1)"><path fill="none" stroke="#000000" d="M 232 214 L 309 262" stroke-miterlimit="10"/></g><g transform="translate(-62,-6) scale(1,1)"><path fill="none" stroke="#000000" d="M 298.1489142828082 260.1961322780879 L 309 262 L 302.6026508046648 253.0515966076096" stroke-miterlimit="10"/></g><g transform="translate(-62,-6) scale(1,1)"><g><path fill="none" stroke="none"/><text fill="#000000" stroke="none" font-family="Arial" font-size="13px" font-style="normal" font-weight="normal" text-decoration="none" x="238.5" y="268.5">Feu vert ?</text></g></g><g transform="translate(-62,-6) scale(1,1)"><path fill="none" stroke="#000000" d="M 321 280 Q 321 280 321 287.5 Q 321 295 321 309" stroke-miterlimit="10"/></g><g transform="translate(-62,-6) scale(1,1)"><path fill="none" stroke="#000000" d="M 316.790482243984 298.83732514237585 L 321 309 L 325.209517756016 298.83732514237585" stroke-miterlimit="10"/></g><g transform="translate(-62,-6) scale(1,1)"><g><path fill="none" stroke="none"/><text fill="#000000" stroke="none" font-family="Arial" font-size="13px" font-style="normal" font-weight="normal" text-decoration="none" x="327.94091796875" y="292.5">oui</text></g></g><g transform="translate(-62,-6) scale(1,1)"><path fill="none" stroke="#000000" d="M 321 351 Q 321 351 321 358.5 Q 321 366 439 380" stroke-miterlimit="10"/></g><g transform="translate(-62,-6) scale(1,1)"><path fill="none" stroke="#000000" d="M 428.41214990518745 382.9828560759409 L 439 380 L 429.4040616411701 374.6224571583727" stroke-miterlimit="10"/></g><g transform="translate(-62,-6) scale(1,1)"><path fill="none" stroke="#000000" d="M 618 39 L 600 71" stroke-miterlimit="10"/></g><g transform="translate(-62,-6) scale(1,1)"><path fill="none" stroke="#000000" d="M 601.3134528744465 60.078697809024405 L 600 71 L 608.6512782729164 64.20622459566374" stroke-miterlimit="10"/></g><g transform="translate(-62,-6) scale(1,1)"><g><path fill="none" stroke="none"/><text fill="#000000" stroke="none" font-family="Arial" font-size="13px" font-style="normal" font-weight="normal" text-decoration="none" x="542.1845703125" y="58.5">non -</text><text fill="#000000" stroke="none" font-family="Arial" font-size="13px" font-style="normal" font-weight="normal" text-decoration="none" x="524.01123046875" y="71.5">Traverser ?</text></g></g><g transform="translate(-62,-6) scale(1,1)"><path fill="none" stroke="#000000" d="M 583 84 Q 464 112 420 206" stroke-miterlimit="10"/></g><g transform="translate(-62,-6) scale(1,1)"><path fill="none" stroke="#000000" d="M 420.49584636673103 195.0111813018596 L 420 206 L 428.12088454702683 198.58034810965765" stroke-miterlimit="10"/></g><g transform="translate(-62,-6) scale(1,1)"><g><path fill="none" stroke="none"/><text fill="#000000" stroke="none" font-family="Arial" font-size="13px" font-style="normal" font-weight="normal" text-decoration="none" x="543.94091796875" y="108.5">oui</text></g></g><g transform="translate(-62,-6) scale(1,1)"><path fill="none" stroke="#000000" d="M 599 91 L 621 151" stroke-miterlimit="10"/></g><g transform="translate(-62,-6) scale(1,1)"><path fill="none" stroke="#000000" d="M 613.5492354099499 142.9076513283438 L 621 151 L 621.453668454805 140.00935921189694" stroke-miterlimit="10"/></g><g transform="translate(-62,-6) scale(1,1)"><g><path fill="none" stroke="none"/><text fill="#000000" stroke="none" font-family="Arial" font-size="13px" font-style="normal" font-weight="normal" text-decoration="none" x="608.5791015625" y="108.5">non</text></g></g><g transform="translate(-62,-6) scale(1,1)"><path fill="none" stroke="#000000" d="M 430 213 Q 432 213 465 260" stroke-miterlimit="10"/></g><g transform="translate(-62,-6) scale(1,1)"><path fill="none" stroke="#000000" d="M 455.71509370474195 254.10165149484385 L 465 260 L 462.6053420217388 249.26381757014394" stroke-miterlimit="10"/></g><g transform="translate(-62,-6) scale(1,1)"><g><path fill="none" stroke="none"/><text fill="#000000" stroke="none" font-family="Arial" font-size="13px" font-style="normal" font-weight="normal" text-decoration="none" x="397.275634765625" y="253.5">Visibilité</text><text fill="#000000" stroke="none" font-family="Arial" font-size="13px" font-style="normal" font-weight="normal" text-decoration="none" x="392.819580078125" y="266.5">voitures ?</text></g></g><g transform="translate(-62,-6) scale(1,1)"><path fill="none" stroke="#000000" d="M 476 260 L 503 193" stroke-miterlimit="10"/></g><g transform="translate(-62,-6) scale(1,1)"><path fill="none" stroke="#000000" d="M 503.1058405445853 203.99949079635607 L 503 193 L 495.2970260350983 200.85265509850313" stroke-miterlimit="10"/></g><g transform="translate(-62,-6) scale(1,1)"><g><path fill="none" stroke="none"/><text fill="#000000" stroke="none" font-family="Arial" font-size="13px" font-style="normal" font-weight="normal" text-decoration="none" x="487.94091796875" y="259.5">oui</text></g></g><g transform="translate(-62,-6) scale(1,1)"><path fill="none" stroke="#000000" d="M 479 185 L 427 206" stroke-miterlimit="10"/></g><g transform="translate(-62,-6) scale(1,1)"><path fill="none" stroke="#000000" d="M 434.8469484486456 198.291212803281 L 427 206 L 437.9995661611826 206.09769475813454" stroke-miterlimit="10"/></g><g transform="translate(-62,-6) scale(1,1)"><path fill="none" stroke="#000000" d="M 473 280 Q 473 280 444 311" stroke-miterlimit="10"/></g><g transform="translate(-62,-6) scale(1,1)"><path fill="none" stroke="#000000" d="M 447.86861329449727 300.7027270028595 L 444 311 L 454.0167942583346 306.45425113032024" stroke-miterlimit="10"/></g><g transform="translate(-62,-6) scale(1,1)"><g><path fill="none" stroke="none"/><text fill="#000000" stroke="none" font-family="Arial" font-size="13px" font-style="normal" font-weight="normal" text-decoration="none" x="472.5791015625" y="298.5">non</text></g></g><g transform="translate(-62,-6) scale(1,1)"><path fill="none" stroke="#000000" d="M 321 260 L 332 193" stroke-miterlimit="10"/></g><g transform="translate(-62,-6) scale(1,1)"><path fill="none" stroke="#000000" d="M 334.5074497311318 203.71040129247484 L 332 193 L 326.19963732522956 202.34643209150582" stroke-miterlimit="10"/></g><g transform="translate(-62,-6) scale(1,1)"><g><path fill="none" stroke="none"/><text fill="#000000" stroke="none" font-family="Arial" font-size="13px" font-style="normal" font-weight="normal" text-decoration="none" x="328.5791015625" y="251.5">non</text></g></g><g transform="translate(-62,-6) scale(1,1)"><path fill="none" stroke="#000000" d="M 303 183 L 235 207" stroke-miterlimit="10"/></g><g transform="translate(-62,-6) scale(1,1)"><path fill="none" stroke="#000000" d="M 243.18229195892005 199.648122804413 L 235 207 L 245.98431634925083 207.5871919103502" stroke-miterlimit="10"/></g><g transform="translate(-62,-6) scale(1,1)"><path fill="none" stroke="#000000" d="M 441 353 L 462 380" stroke-miterlimit="10"/></g><g transform="translate(-62,-6) scale(1,1)"><path fill="none" stroke="#000000" d="M 452.43792898816133 374.56246398039013 L 462 380 L 459.0835133377538 369.39367615292934" stroke-miterlimit="10"/></g><g transform="translate(-62,-6) scale(1,1)"><path fill="none" stroke="#000000" d="M 617 193 L 585 247" stroke-miterlimit="10"/></g><g transform="translate(-62,-6) scale(1,1)"><path fill="none" stroke="#000000" d="M 586.5595434480929 236.1111146468745 L 585 247 L 593.8023684204594 240.4031590749436" stroke-miterlimit="10"/></g><g transform="translate(-62,-6) scale(1,1)"><g><path fill="none" stroke="none"/><text fill="#000000" stroke="none" font-family="Arial" font-size="13px" font-style="normal" font-weight="normal" text-decoration="none" x="624.970458984375" y="235.5">Fin</text><text fill="#000000" stroke="none" font-family="Arial" font-size="13px" font-style="normal" font-weight="normal" text-decoration="none" x="599.31640625" y="248.5">simulation ?</text></g></g><g transform="translate(-62,-6) scale(1,1)"><path fill="none" stroke="#000000" d="M 587 267 L 617 303" stroke-miterlimit="10"/></g><g transform="translate(-62,-6) scale(1,1)"><path fill="none" stroke="#000000" d="M 607.260172980272 297.88768451425597 L 617 303 L 613.727855214301 292.49794931923185" stroke-miterlimit="10"/></g><g transform="translate(-62,-6) scale(1,1)"><g><path fill="none" stroke="none"/><text fill="#000000" stroke="none" font-family="Arial" font-size="13px" font-style="normal" font-weight="normal" text-decoration="none" x="574.94091796875" y="291.5">oui</text></g></g><g transform="translate(-62,-6) scale(1,1)"><path fill="none" stroke="#000000" d="M 570 267 L 467 380" stroke-miterlimit="10"/></g><g transform="translate(-62,-6) scale(1,1)"><path fill="none" stroke="#000000" d="M 470.735022966926 369.6535221724234 L 467 380 L 476.9571247010766 375.3249954345252" stroke-miterlimit="10"/></g><g transform="translate(-62,-6) scale(1,1)"><g><path fill="none" stroke="none"/><text fill="#000000" stroke="none" font-family="Arial" font-size="13px" font-style="normal" font-weight="normal" text-decoration="none" x="536.5791015625" y="276.5">non</text></g></g></g></svg>